# xmcd
#
# Track frame offsets:
# 150
# 12857
# 25516
# 38953
# 50375
# 64183
# 78989
# 91962
# 104169
# 117527
# 127242
# 139171
# 149612
# 162819
# 176258
# 185025
# 197560
# 207338
# 217853
#
# Disc length: 3077 seconds
#
#
# Revision: 0
# Processed by: cddbd v1.5.1PL2 Copyright (c) Steve Scherf et al.
# Submitted via: FreeRIP 2.931 
#
DISCID=150c0313
DTITLE=Patsy Cline - Classics Collection
DYEAR=1900
DGENRE=Country
TTITLE0=I Fall To Pieces
TTITLE1=Blue
TTITLE2=I Can't Help It If I'm Still In Love Wiht You
TTITLE3=If You've Got Leaving On Your
TTITLE4=I've Got Your Picture,She's Got You
TTITLE5=Satin Sheets
TTITLE6=Send Me The Pillow That You Dream
TTITLE7=Stan By Your Man
TTITLE8=Talk Back Thembling Lips Kitty Wells
TTITLE9=True Love
TTITLE10=Walkin' After Midnight
TTITLE11=Your Cheating Heart
TTITLE12=There'll Be Peace In The Valley
TTITLE13=Live's Railway To Heaven
TTITLE14=Frosty The Snowman
TTITLE15=( I'll Be Loving You) Always
TTITLE16=Blue Moon of Kentucky
TTITLE17=Lovesick Blues
TTITLE18=I Fall To Pieces Karaoke
EXTD=
EXTT0=with Jim Reeves
EXTT1=
EXTT2=
EXTT3=
EXTT4=
EXTT5=
EXTT6=
EXTT7=
EXTT8=
EXTT9=
EXTT10=
EXTT11=
EXTT12=
EXTT13=with Willie Nelson
EXTT14=
EXTT15=
EXTT16=
EXTT17=with Loretta,Dplly,Tammy
EXTT18=
PLAYORDER=
